<?xml version="1.0" encoding="UTF-8" standalone="no"?>
<!DOCTYPE svg PUBLIC "-//W3C//DTD SVG 1.1//EN"
 "http://www.w3.org/Graphics/SVG/1.1/DTD/svg11.dtd">
<!-- Generated by graphviz version 2.40.1 (20161225.0304)
 -->
<!-- Title: dependencies Pages: 1 -->
<svg width="3227pt" height="284pt"
 viewBox="0.00 0.00 3227.00 284.00" xmlns="http://www.w3.org/2000/svg" xmlns:xlink="http://www.w3.org/1999/xlink">
<g id="graph0" class="graph" transform="scale(1 1) rotate(0) translate(4 280)">
<title>dependencies</title>
<polygon fill="#ffffff" stroke="transparent" points="-4,4 -4,-280 3223,-280 3223,4 -4,4"/>
<text text-anchor="start" x="1588.5091" y="-42.4" font-family="sans-serif" font-weight="bold" font-size="14.00" fill="#000000">Legend</text>
<polygon fill="#ffffb3" stroke="transparent" points="1375.5,-10 1375.5,-30 1395.5,-30 1395.5,-10 1375.5,-10"/>
<text text-anchor="start" x="1399.129" y="-15.4" font-family="sans-serif" font-size="14.00" fill="#000000"> &#160;Declarations</text>
<polygon fill="#8dd3c7" stroke="transparent" points="1488.5,-10 1488.5,-30 1508.5,-30 1508.5,-10 1488.5,-10"/>
<text text-anchor="start" x="1512.2251" y="-15.4" font-family="sans-serif" font-size="14.00" fill="#000000"> &#160;Module</text>
<polygon fill="#80b1d3" stroke="transparent" points="1574.5,-10 1574.5,-30 1594.5,-30 1594.5,-10 1574.5,-10"/>
<text text-anchor="start" x="1598.2812" y="-15.4" font-family="sans-serif" font-size="14.00" fill="#000000"> &#160;Bootstrap</text>
<polygon fill="#fdb462" stroke="transparent" points="1671.5,-10 1671.5,-30 1691.5,-30 1691.5,-10 1671.5,-10"/>
<text text-anchor="start" x="1695.1732" y="-15.4" font-family="sans-serif" font-size="14.00" fill="#000000"> &#160;Providers</text>
<polygon fill="#fb8072" stroke="transparent" points="1767.5,-10 1767.5,-30 1787.5,-30 1787.5,-10 1767.5,-10"/>
<text text-anchor="start" x="1791.2258" y="-15.4" font-family="sans-serif" font-size="14.00" fill="#000000"> &#160;Exports</text>
<g id="clust1" class="cluster">
<title>cluster_AppModule</title>
<polygon fill="none" stroke="#000000" stroke-dasharray="1,5" points="8,-70 8,-268 3211,-268 3211,-70 8,-70"/>
</g>
<g id="clust2" class="cluster">
<title>cluster_AppModule_declarations</title>
<polygon fill="none" stroke="#000000" points="1067,-78 1067,-130 3203,-130 3203,-78 1067,-78"/>
</g>
<g id="clust17" class="cluster">
<title>cluster_AppModule_imports</title>
<polygon fill="none" stroke="#000000" points="196,-78 196,-130 1059,-130 1059,-78 196,-78"/>
</g>
<g id="clust19" class="cluster">
<title>cluster_AppModule_bootstrap</title>
<polygon fill="none" stroke="#000000" points="1425,-208 1425,-260 1549,-260 1549,-208 1425,-208"/>
</g>
<g id="clust20" class="cluster">
<title>cluster_AppModule_providers</title>
<polygon fill="none" stroke="#000000" points="16,-78 16,-130 188,-130 188,-78 16,-78"/>
</g>
<!-- AppComponent -->
<g id="node1" class="node">
<title>AppComponent</title>
<polygon fill="#ffffb3" stroke="#000000" points="3194.9399,-122 3089.0601,-122 3089.0601,-86 3194.9399,-86 3194.9399,-122"/>
<text text-anchor="middle" x="3142" y="-99.8" font-family="Times,serif" font-size="14.00" fill="#000000">AppComponent</text>
</g>
<!-- AppModule -->
<g id="node15" class="node">
<title>AppModule</title>
<polygon fill="#8dd3c7" stroke="#000000" points="1528.6571,-187 1525.6571,-191 1504.6571,-191 1501.6571,-187 1445.3429,-187 1445.3429,-151 1528.6571,-151 1528.6571,-187"/>
<text text-anchor="middle" x="1487" y="-164.8" font-family="Times,serif" font-size="14.00" fill="#000000">AppModule</text>
</g>
<!-- AppComponent&#45;&gt;AppModule -->
<g id="edge1" class="edge">
<title>AppComponent&#45;&gt;AppModule</title>
<path fill="none" stroke="#000000" d="M3142,-122.1532C3142,-145.7566 3142,-184 3142,-184 3142,-184 1538.7381,-184 1538.7381,-184"/>
<polygon fill="#000000" stroke="#000000" points="1538.7381,-180.5001 1528.7381,-184 1538.738,-187.5001 1538.7381,-180.5001"/>
</g>
<!-- WelcomeComponent -->
<g id="node2" class="node">
<title>WelcomeComponent</title>
<polygon fill="#ffffb3" stroke="#000000" points="3071.472,-122 2936.528,-122 2936.528,-86 3071.472,-86 3071.472,-122"/>
<text text-anchor="middle" x="3004" y="-99.8" font-family="Times,serif" font-size="14.00" fill="#000000">WelcomeComponent</text>
</g>
<!-- WelcomeComponent&#45;&gt;AppModule -->
<g id="edge2" class="edge">
<title>WelcomeComponent&#45;&gt;AppModule</title>
<path fill="none" stroke="#000000" d="M3004,-122.2479C3004,-145.0179 3004,-181 3004,-181 3004,-181 1538.7588,-181 1538.7588,-181"/>
<polygon fill="#000000" stroke="#000000" points="1538.7589,-177.5001 1528.7588,-181 1538.7588,-184.5001 1538.7589,-177.5001"/>
</g>
<!-- NotFoundComponent -->
<g id="node3" class="node">
<title>NotFoundComponent</title>
<polygon fill="#ffffb3" stroke="#000000" points="2918.1122,-122 2779.8878,-122 2779.8878,-86 2918.1122,-86 2918.1122,-122"/>
<text text-anchor="middle" x="2849" y="-99.8" font-family="Times,serif" font-size="14.00" fill="#000000">NotFoundComponent</text>
</g>
<!-- NotFoundComponent&#45;&gt;AppModule -->
<g id="edge3" class="edge">
<title>NotFoundComponent&#45;&gt;AppModule</title>
<path fill="none" stroke="#000000" d="M2849,-122.2921C2849,-144.2057 2849,-178 2849,-178 2849,-178 1538.8798,-178 1538.8798,-178"/>
<polygon fill="#000000" stroke="#000000" points="1538.8798,-174.5001 1528.8798,-178 1538.8797,-181.5001 1538.8798,-174.5001"/>
</g>
<!-- FrameComponent -->
<g id="node4" class="node">
<title>FrameComponent</title>
<polygon fill="#ffffb3" stroke="#000000" points="2761.5954,-122 2644.4046,-122 2644.4046,-86 2761.5954,-86 2761.5954,-122"/>
<text text-anchor="middle" x="2703" y="-99.8" font-family="Times,serif" font-size="14.00" fill="#000000">FrameComponent</text>
</g>
<!-- FrameComponent&#45;&gt;AppModule -->
<g id="edge4" class="edge">
<title>FrameComponent&#45;&gt;AppModule</title>
<path fill="none" stroke="#000000" d="M2703,-122.2843C2703,-143.3211 2703,-175 2703,-175 2703,-175 1538.8575,-175 1538.8575,-175"/>
<polygon fill="#000000" stroke="#000000" points="1538.8575,-171.5001 1528.8575,-175 1538.8574,-178.5001 1538.8575,-171.5001"/>
</g>
<!-- ColorComponent -->
<g id="node5" class="node">
<title>ColorComponent</title>
<polygon fill="#ffffb3" stroke="#000000" points="2626.7204,-122 2513.2796,-122 2513.2796,-86 2626.7204,-86 2626.7204,-122"/>
<text text-anchor="middle" x="2570" y="-99.8" font-family="Times,serif" font-size="14.00" fill="#000000">ColorComponent</text>
</g>
<!-- ColorComponent&#45;&gt;AppModule -->
<g id="edge5" class="edge">
<title>ColorComponent&#45;&gt;AppModule</title>
<path fill="none" stroke="#000000" d="M2570,-122.2228C2570,-142.3652 2570,-172 2570,-172 2570,-172 1538.7913,-172 1538.7913,-172"/>
<polygon fill="#000000" stroke="#000000" points="1538.7913,-168.5001 1528.7913,-172 1538.7913,-175.5001 1538.7913,-168.5001"/>
</g>
<!-- DrivetrainComponent -->
<g id="node6" class="node">
<title>DrivetrainComponent</title>
<polygon fill="#ffffb3" stroke="#000000" points="2495.3613,-122 2356.6387,-122 2356.6387,-86 2495.3613,-86 2495.3613,-122"/>
<text text-anchor="middle" x="2426" y="-99.8" font-family="Times,serif" font-size="14.00" fill="#000000">DrivetrainComponent</text>
</g>
<!-- DrivetrainComponent&#45;&gt;AppModule -->
<g id="edge6" class="edge">
<title>DrivetrainComponent&#45;&gt;AppModule</title>
<path fill="none" stroke="#000000" d="M2426,-122.1061C2426,-141.3391 2426,-169 2426,-169 2426,-169 1538.8647,-169 1538.8647,-169"/>
<polygon fill="#000000" stroke="#000000" points="1538.8647,-165.5001 1528.8647,-169 1538.8646,-172.5001 1538.8647,-165.5001"/>
</g>
<!-- CustomizeComponent -->
<g id="node7" class="node">
<title>CustomizeComponent</title>
<polygon fill="#ffffb3" stroke="#000000" points="2338.7148,-122 2197.2852,-122 2197.2852,-86 2338.7148,-86 2338.7148,-122"/>
<text text-anchor="middle" x="2268" y="-99.8" font-family="Times,serif" font-size="14.00" fill="#000000">CustomizeComponent</text>
</g>
<!-- CustomizeComponent&#45;&gt;AppModule -->
<g id="edge7" class="edge">
<title>CustomizeComponent&#45;&gt;AppModule</title>
<path fill="none" stroke="#000000" d="M2268,-122.2667C2268,-140.5552 2268,-166 2268,-166 2268,-166 1538.7138,-166 1538.7138,-166"/>
<polygon fill="#000000" stroke="#000000" points="1538.7139,-162.5001 1528.7138,-166 1538.7138,-169.5001 1538.7139,-162.5001"/>
</g>
<!-- AccessoriesComponent -->
<g id="node8" class="node">
<title>AccessoriesComponent</title>
<polygon fill="#ffffb3" stroke="#000000" points="2179.1825,-122 2030.8175,-122 2030.8175,-86 2179.1825,-86 2179.1825,-122"/>
<text text-anchor="middle" x="2105" y="-99.8" font-family="Times,serif" font-size="14.00" fill="#000000">AccessoriesComponent</text>
</g>
<!-- AccessoriesComponent&#45;&gt;AppModule -->
<g id="edge8" class="edge">
<title>AccessoriesComponent&#45;&gt;AppModule</title>
<path fill="none" stroke="#000000" d="M2105,-122.0225C2105,-139.3734 2105,-163 2105,-163 2105,-163 1538.9918,-163 1538.9918,-163"/>
<polygon fill="#000000" stroke="#000000" points="1538.9918,-159.5001 1528.9918,-163 1538.9918,-166.5001 1538.9918,-159.5001"/>
</g>
<!-- ExtrasComponent -->
<g id="node9" class="node">
<title>ExtrasComponent</title>
<polygon fill="#ffffb3" stroke="#000000" points="2012.5954,-122 1895.4046,-122 1895.4046,-86 2012.5954,-86 2012.5954,-122"/>
<text text-anchor="middle" x="1954" y="-99.8" font-family="Times,serif" font-size="14.00" fill="#000000">ExtrasComponent</text>
</g>
<!-- ExtrasComponent&#45;&gt;AppModule -->
<g id="edge9" class="edge">
<title>ExtrasComponent&#45;&gt;AppModule</title>
<path fill="none" stroke="#000000" d="M1954,-122.027C1954,-138.3976 1954,-160 1954,-160 1954,-160 1538.8541,-160 1538.8541,-160"/>
<polygon fill="#000000" stroke="#000000" points="1538.8542,-156.5001 1528.8541,-160 1538.8541,-163.5001 1538.8542,-156.5001"/>
</g>
<!-- OverviewComponent -->
<g id="node10" class="node">
<title>OverviewComponent</title>
<polygon fill="#ffffb3" stroke="#000000" points="1877.0268,-122 1740.9732,-122 1740.9732,-86 1877.0268,-86 1877.0268,-122"/>
<text text-anchor="middle" x="1809" y="-99.8" font-family="Times,serif" font-size="14.00" fill="#000000">OverviewComponent</text>
</g>
<!-- OverviewComponent&#45;&gt;AppModule -->
<g id="edge10" class="edge">
<title>OverviewComponent&#45;&gt;AppModule</title>
<path fill="none" stroke="#000000" d="M1809,-122.2396C1809,-137.5706 1809,-157 1809,-157 1809,-157 1538.7658,-157 1538.7658,-157"/>
<polygon fill="#000000" stroke="#000000" points="1538.7658,-153.5001 1528.7658,-157 1538.7657,-160.5001 1538.7658,-153.5001"/>
</g>
<!-- OrderFormComponent -->
<g id="node11" class="node">
<title>OrderFormComponent</title>
<polygon fill="#ffffb3" stroke="#000000" points="1723.3089,-122 1578.6911,-122 1578.6911,-86 1723.3089,-86 1723.3089,-122"/>
<text text-anchor="middle" x="1651" y="-99.8" font-family="Times,serif" font-size="14.00" fill="#000000">OrderFormComponent</text>
</g>
<!-- OrderFormComponent&#45;&gt;AppModule -->
<g id="edge11" class="edge">
<title>OrderFormComponent&#45;&gt;AppModule</title>
<path fill="none" stroke="#000000" d="M1651,-122.0511C1651,-136.373 1651,-154 1651,-154 1651,-154 1538.8085,-154 1538.8085,-154"/>
<polygon fill="#000000" stroke="#000000" points="1538.8085,-150.5001 1528.8085,-154 1538.8084,-157.5001 1538.8085,-150.5001"/>
</g>
<!-- BikeComponent -->
<g id="node12" class="node">
<title>BikeComponent</title>
<ellipse fill="#ffffb3" stroke="#000000" cx="1487" cy="-104" rx="74.1817" ry="18"/>
<text text-anchor="middle" x="1487" y="-99.8" font-family="Times,serif" font-size="14.00" fill="#000000">BikeComponent</text>
</g>
<!-- BikeComponent&#45;&gt;AppModule -->
<g id="edge12" class="edge">
<title>BikeComponent&#45;&gt;AppModule</title>
<path fill="none" stroke="#000000" d="M1500.9427,-121.7615C1500.9427,-121.7615 1500.9427,-140.8074 1500.9427,-140.8074"/>
<polygon fill="#000000" stroke="#000000" points="1497.4428,-140.8074 1500.9427,-150.8074 1504.4428,-140.8075 1497.4428,-140.8074"/>
</g>
<!-- BikeComponent&#45;&gt;AppModule -->
<g id="edge24" class="edge">
<title>BikeComponent&#45;&gt;AppModule</title>
<path fill="none" stroke="#000000" d="M1473.0573,-121.7615C1473.0573,-121.7615 1473.0573,-140.8074 1473.0573,-140.8074"/>
<polygon fill="#000000" stroke="#000000" points="1469.5574,-140.8074 1473.0573,-150.8074 1476.5574,-140.8075 1469.5574,-140.8074"/>
</g>
<!-- DoneComponent -->
<g id="node13" class="node">
<title>DoneComponent</title>
<polygon fill="#ffffb3" stroke="#000000" points="1394.6541,-122 1283.3459,-122 1283.3459,-86 1394.6541,-86 1394.6541,-122"/>
<text text-anchor="middle" x="1339" y="-99.8" font-family="Times,serif" font-size="14.00" fill="#000000">DoneComponent</text>
</g>
<!-- DoneComponent&#45;&gt;AppModule -->
<g id="edge13" class="edge">
<title>DoneComponent&#45;&gt;AppModule</title>
<path fill="none" stroke="#000000" d="M1339,-122.1243C1339,-136.7832 1339,-155 1339,-155 1339,-155 1434.985,-155 1434.985,-155"/>
<polygon fill="#000000" stroke="#000000" points="1434.9851,-158.5001 1444.985,-155 1434.985,-151.5001 1434.9851,-158.5001"/>
</g>
<!-- OrderConfirmationComponent -->
<g id="node14" class="node">
<title>OrderConfirmationComponent</title>
<polygon fill="#ffffb3" stroke="#000000" points="1264.91,-122 1075.09,-122 1075.09,-86 1264.91,-86 1264.91,-122"/>
<text text-anchor="middle" x="1170" y="-99.8" font-family="Times,serif" font-size="14.00" fill="#000000">OrderConfirmationComponent</text>
</g>
<!-- OrderConfirmationComponent&#45;&gt;AppModule -->
<g id="edge14" class="edge">
<title>OrderConfirmationComponent&#45;&gt;AppModule</title>
<path fill="none" stroke="#000000" d="M1170,-122.2819C1170,-137.9478 1170,-158 1170,-158 1170,-158 1435.2318,-158 1435.2318,-158"/>
<polygon fill="#000000" stroke="#000000" points="1435.2318,-161.5001 1445.2318,-158 1435.2318,-154.5001 1435.2318,-161.5001"/>
</g>
<!-- AppComponent  -->
<g id="node23" class="node">
<title>AppComponent </title>
<polygon fill="#80b1d3" stroke="#000000" points="1541.439,-252 1432.561,-252 1432.561,-216 1541.439,-216 1541.439,-252"/>
<text text-anchor="middle" x="1487" y="-229.8" font-family="Times,serif" font-size="14.00" fill="#000000">AppComponent </text>
</g>
<!-- AppModule&#45;&gt;AppComponent  -->
<g id="edge22" class="edge">
<title>AppModule&#45;&gt;AppComponent </title>
<path fill="none" stroke="#000000" stroke-dasharray="1,5" d="M1487,-187.1061C1487,-187.1061 1487,-205.991 1487,-205.991"/>
<polygon fill="#000000" stroke="#000000" points="1483.5001,-205.9909 1487,-215.991 1490.5001,-205.991 1483.5001,-205.9909"/>
</g>
<!-- BrowserModule -->
<g id="node16" class="node">
<title>BrowserModule</title>
<polygon fill="#8dd3c7" stroke="#000000" points="1051.4734,-122 1048.4734,-126 1027.4734,-126 1024.4734,-122 944.5266,-122 944.5266,-86 1051.4734,-86 1051.4734,-122"/>
<text text-anchor="middle" x="998" y="-99.8" font-family="Times,serif" font-size="14.00" fill="#000000">BrowserModule</text>
</g>
<!-- BrowserModule&#45;&gt;AppModule -->
<g id="edge15" class="edge">
<title>BrowserModule&#45;&gt;AppModule</title>
<path fill="none" stroke="#000000" d="M998,-122.0352C998,-138.7344 998,-161 998,-161 998,-161 1435.3081,-161 1435.3081,-161"/>
<polygon fill="#000000" stroke="#000000" points="1435.3082,-164.5001 1445.3081,-161 1435.3081,-157.5001 1435.3082,-164.5001"/>
</g>
<!-- FormsModule -->
<g id="node17" class="node">
<title>FormsModule</title>
<polygon fill="#8dd3c7" stroke="#000000" points="926.8288,-122 923.8288,-126 902.8288,-126 899.8288,-122 831.1712,-122 831.1712,-86 926.8288,-86 926.8288,-122"/>
<text text-anchor="middle" x="879" y="-99.8" font-family="Times,serif" font-size="14.00" fill="#000000">FormsModule</text>
</g>
<!-- FormsModule&#45;&gt;AppModule -->
<g id="edge16" class="edge">
<title>FormsModule&#45;&gt;AppModule</title>
<path fill="none" stroke="#000000" d="M879,-122.302C879,-140.2699 879,-165 879,-165 879,-165 1435.2097,-165 1435.2097,-165"/>
<polygon fill="#000000" stroke="#000000" points="1435.2097,-168.5001 1445.2097,-165 1435.2097,-161.5001 1435.2097,-168.5001"/>
</g>
<!-- HttpModule -->
<g id="node18" class="node">
<title>HttpModule</title>
<polygon fill="#8dd3c7" stroke="#000000" points="813.4387,-122 810.4387,-126 789.4387,-126 786.4387,-122 728.5613,-122 728.5613,-86 813.4387,-86 813.4387,-122"/>
<text text-anchor="middle" x="771" y="-99.8" font-family="Times,serif" font-size="14.00" fill="#000000">HttpModule</text>
</g>
<!-- HttpModule&#45;&gt;AppModule -->
<g id="edge17" class="edge">
<title>HttpModule&#45;&gt;AppModule</title>
<path fill="none" stroke="#000000" d="M771,-122.1686C771,-141.0898 771,-168 771,-168 771,-168 1435.1474,-168 1435.1474,-168"/>
<polygon fill="#000000" stroke="#000000" points="1435.1474,-171.5001 1445.1474,-168 1435.1473,-164.5001 1435.1474,-171.5001"/>
</g>
<!-- ReactiveFormsModule -->
<g id="node19" class="node">
<title>ReactiveFormsModule</title>
<polygon fill="#8dd3c7" stroke="#000000" points="711.3047,-122 708.3047,-126 687.3047,-126 684.3047,-122 566.6953,-122 566.6953,-86 711.3047,-86 711.3047,-122"/>
<text text-anchor="middle" x="639" y="-99.8" font-family="Times,serif" font-size="14.00" fill="#000000">ReactiveFormsModule</text>
</g>
<!-- ReactiveFormsModule&#45;&gt;AppModule -->
<g id="edge18" class="edge">
<title>ReactiveFormsModule&#45;&gt;AppModule</title>
<path fill="none" stroke="#000000" d="M639,-122.308C639,-142.1455 639,-171 639,-171 639,-171 1435.2368,-171 1435.2368,-171"/>
<polygon fill="#000000" stroke="#000000" points="1435.2368,-174.5001 1445.2368,-171 1435.2368,-167.5001 1435.2368,-174.5001"/>
</g>
<!-- routing -->
<g id="node20" class="node">
<title>routing</title>
<polygon fill="#8dd3c7" stroke="#000000" points="549.4435,-122 546.4435,-126 525.4435,-126 522.4435,-122 492.5565,-122 492.5565,-86 549.4435,-86 549.4435,-122"/>
<text text-anchor="middle" x="521" y="-99.8" font-family="Times,serif" font-size="14.00" fill="#000000">routing</text>
</g>
<!-- routing&#45;&gt;AppModule -->
<g id="edge19" class="edge">
<title>routing&#45;&gt;AppModule</title>
<path fill="none" stroke="#000000" d="M521,-122.0267C521,-142.7672 521,-174 521,-174 521,-174 1435.1821,-174 1435.1821,-174"/>
<polygon fill="#000000" stroke="#000000" points="1435.1822,-177.5001 1445.1821,-174 1435.1821,-170.5001 1435.1822,-177.5001"/>
</g>
<!-- NgxCarouselModule -->
<g id="node21" class="node">
<title>NgxCarouselModule</title>
<polygon fill="#8dd3c7" stroke="#000000" points="474.9187,-122 471.9187,-126 450.9187,-126 447.9187,-122 341.0813,-122 341.0813,-86 474.9187,-86 474.9187,-122"/>
<text text-anchor="middle" x="408" y="-99.8" font-family="Times,serif" font-size="14.00" fill="#000000">NgxCarouselModule</text>
</g>
<!-- NgxCarouselModule&#45;&gt;AppModule -->
<g id="edge20" class="edge">
<title>NgxCarouselModule&#45;&gt;AppModule</title>
<path fill="none" stroke="#000000" d="M408,-122.2921C408,-144.2057 408,-178 408,-178 408,-178 1435.0331,-178 1435.0331,-178"/>
<polygon fill="#000000" stroke="#000000" points="1435.0331,-181.5001 1445.0331,-178 1435.033,-174.5001 1435.0331,-181.5001"/>
</g>
<!-- DropdownModule -->
<g id="node22" class="node">
<title>DropdownModule</title>
<polygon fill="#8dd3c7" stroke="#000000" points="323.9244,-122 320.9244,-126 299.9244,-126 296.9244,-122 204.0756,-122 204.0756,-86 323.9244,-86 323.9244,-122"/>
<text text-anchor="middle" x="264" y="-99.8" font-family="Times,serif" font-size="14.00" fill="#000000">DropdownModule</text>
</g>
<!-- DropdownModule&#45;&gt;AppModule -->
<g id="edge21" class="edge">
<title>DropdownModule&#45;&gt;AppModule</title>
<path fill="none" stroke="#000000" d="M264,-122.2479C264,-145.0179 264,-181 264,-181 264,-181 1435.2554,-181 1435.2554,-181"/>
<polygon fill="#000000" stroke="#000000" points="1435.2554,-184.5001 1445.2554,-181 1435.2553,-177.5001 1435.2554,-184.5001"/>
</g>
<!-- CountriesService -->
<g id="node24" class="node">
<title>CountriesService</title>
<ellipse fill="#fdb462" stroke="#000000" cx="102" cy="-104" rx="77.5839" ry="18"/>
<text text-anchor="middle" x="102" y="-99.8" font-family="Times,serif" font-size="14.00" fill="#000000">CountriesService</text>
</g>
<!-- CountriesService&#45;&gt;AppModule -->
<g id="edge23" class="edge">
<title>CountriesService&#45;&gt;AppModule</title>
<path fill="none" stroke="#000000" d="M102,-122.1532C102,-145.7566 102,-184 102,-184 102,-184 1435.1724,-184 1435.1724,-184"/>
<polygon fill="#000000" stroke="#000000" points="1435.1724,-187.5001 1445.1724,-184 1435.1723,-180.5001 1435.1724,-187.5001"/>
</g>
</g>
</svg>
