<?xml version="1.0" encoding="UTF-8" standalone="no"?>
<!DOCTYPE svg PUBLIC "-//W3C//DTD SVG 1.1//EN"
 "http://www.w3.org/Graphics/SVG/1.1/DTD/svg11.dtd">
<!-- Generated by graphviz version 2.40.1 (20161225.0304)
 -->
<!-- Title: dependencies Pages: 1 -->
<svg width="3065pt" height="284pt"
 viewBox="0.00 0.00 3065.00 284.00" xmlns="http://www.w3.org/2000/svg" xmlns:xlink="http://www.w3.org/1999/xlink">
<g id="graph0" class="graph" transform="scale(1 1) rotate(0) translate(4 280)">
<title>dependencies</title>
<polygon fill="#ffffff" stroke="transparent" points="-4,4 -4,-280 3061,-280 3061,4 -4,4"/>
<text text-anchor="start" x="1507.5091" y="-42.4" font-family="sans-serif" font-weight="bold" font-size="14.00" fill="#000000">Legend</text>
<polygon fill="#ffffb3" stroke="transparent" points="1294.5,-10 1294.5,-30 1314.5,-30 1314.5,-10 1294.5,-10"/>
<text text-anchor="start" x="1318.129" y="-15.4" font-family="sans-serif" font-size="14.00" fill="#000000"> &#160;Declarations</text>
<polygon fill="#8dd3c7" stroke="transparent" points="1407.5,-10 1407.5,-30 1427.5,-30 1427.5,-10 1407.5,-10"/>
<text text-anchor="start" x="1431.2251" y="-15.4" font-family="sans-serif" font-size="14.00" fill="#000000"> &#160;Module</text>
<polygon fill="#80b1d3" stroke="transparent" points="1493.5,-10 1493.5,-30 1513.5,-30 1513.5,-10 1493.5,-10"/>
<text text-anchor="start" x="1517.2812" y="-15.4" font-family="sans-serif" font-size="14.00" fill="#000000"> &#160;Bootstrap</text>
<polygon fill="#fdb462" stroke="transparent" points="1590.5,-10 1590.5,-30 1610.5,-30 1610.5,-10 1590.5,-10"/>
<text text-anchor="start" x="1614.1732" y="-15.4" font-family="sans-serif" font-size="14.00" fill="#000000"> &#160;Providers</text>
<polygon fill="#fb8072" stroke="transparent" points="1686.5,-10 1686.5,-30 1706.5,-30 1706.5,-10 1686.5,-10"/>
<text text-anchor="start" x="1710.2258" y="-15.4" font-family="sans-serif" font-size="14.00" fill="#000000"> &#160;Exports</text>
<g id="clust1" class="cluster">
<title>cluster_AppModule</title>
<polygon fill="none" stroke="#000000" stroke-dasharray="1,5" points="8,-70 8,-268 3049,-268 3049,-70 8,-70"/>
</g>
<g id="clust2" class="cluster">
<title>cluster_AppModule_declarations</title>
<polygon fill="none" stroke="#000000" points="905,-78 905,-130 3041,-130 3041,-78 905,-78"/>
</g>
<g id="clust17" class="cluster">
<title>cluster_AppModule_imports</title>
<polygon fill="none" stroke="#000000" points="196,-78 196,-130 897,-130 897,-78 196,-78"/>
</g>
<g id="clust19" class="cluster">
<title>cluster_AppModule_bootstrap</title>
<polygon fill="none" stroke="#000000" points="1345,-208 1345,-260 1469,-260 1469,-208 1345,-208"/>
</g>
<g id="clust20" class="cluster">
<title>cluster_AppModule_providers</title>
<polygon fill="none" stroke="#000000" points="16,-78 16,-130 188,-130 188,-78 16,-78"/>
</g>
<!-- AppComponent -->
<g id="node1" class="node">
<title>AppComponent</title>
<polygon fill="#ffffb3" stroke="#000000" points="3032.9399,-122 2927.0601,-122 2927.0601,-86 3032.9399,-86 3032.9399,-122"/>
<text text-anchor="middle" x="2980" y="-99.8" font-family="Times,serif" font-size="14.00" fill="#000000">AppComponent</text>
</g>
<!-- AppModule -->
<g id="node15" class="node">
<title>AppModule</title>
<polygon fill="#8dd3c7" stroke="#000000" points="1448.6571,-187 1445.6571,-191 1424.6571,-191 1421.6571,-187 1365.3429,-187 1365.3429,-151 1448.6571,-151 1448.6571,-187"/>
<text text-anchor="middle" x="1407" y="-164.8" font-family="Times,serif" font-size="14.00" fill="#000000">AppModule</text>
</g>
<!-- AppComponent&#45;&gt;AppModule -->
<g id="edge1" class="edge">
<title>AppComponent&#45;&gt;AppModule</title>
<path fill="none" stroke="#000000" d="M2980,-122.1532C2980,-145.7566 2980,-184 2980,-184 2980,-184 1458.6688,-184 1458.6688,-184"/>
<polygon fill="#000000" stroke="#000000" points="1458.6688,-180.5001 1448.6688,-184 1458.6687,-187.5001 1458.6688,-180.5001"/>
</g>
<!-- WelcomeComponent -->
<g id="node2" class="node">
<title>WelcomeComponent</title>
<polygon fill="#ffffb3" stroke="#000000" points="2909.472,-122 2774.528,-122 2774.528,-86 2909.472,-86 2909.472,-122"/>
<text text-anchor="middle" x="2842" y="-99.8" font-family="Times,serif" font-size="14.00" fill="#000000">WelcomeComponent</text>
</g>
<!-- WelcomeComponent&#45;&gt;AppModule -->
<g id="edge2" class="edge">
<title>WelcomeComponent&#45;&gt;AppModule</title>
<path fill="none" stroke="#000000" d="M2842,-122.2479C2842,-145.0179 2842,-181 2842,-181 2842,-181 1458.7836,-181 1458.7836,-181"/>
<polygon fill="#000000" stroke="#000000" points="1458.7836,-177.5001 1448.7836,-181 1458.7836,-184.5001 1458.7836,-177.5001"/>
</g>
<!-- NotFoundComponent -->
<g id="node3" class="node">
<title>NotFoundComponent</title>
<polygon fill="#ffffb3" stroke="#000000" points="2756.1122,-122 2617.8878,-122 2617.8878,-86 2756.1122,-86 2756.1122,-122"/>
<text text-anchor="middle" x="2687" y="-99.8" font-family="Times,serif" font-size="14.00" fill="#000000">NotFoundComponent</text>
</g>
<!-- NotFoundComponent&#45;&gt;AppModule -->
<g id="edge3" class="edge">
<title>NotFoundComponent&#45;&gt;AppModule</title>
<path fill="none" stroke="#000000" d="M2687,-122.2921C2687,-144.2057 2687,-178 2687,-178 2687,-178 1458.8602,-178 1458.8602,-178"/>
<polygon fill="#000000" stroke="#000000" points="1458.8602,-174.5001 1448.8602,-178 1458.8601,-181.5001 1458.8602,-174.5001"/>
</g>
<!-- FrameComponent -->
<g id="node4" class="node">
<title>FrameComponent</title>
<polygon fill="#ffffb3" stroke="#000000" points="2599.5954,-122 2482.4046,-122 2482.4046,-86 2599.5954,-86 2599.5954,-122"/>
<text text-anchor="middle" x="2541" y="-99.8" font-family="Times,serif" font-size="14.00" fill="#000000">FrameComponent</text>
</g>
<!-- FrameComponent&#45;&gt;AppModule -->
<g id="edge4" class="edge">
<title>FrameComponent&#45;&gt;AppModule</title>
<path fill="none" stroke="#000000" d="M2541,-122.0267C2541,-142.7672 2541,-174 2541,-174 2541,-174 1458.7045,-174 1458.7045,-174"/>
<polygon fill="#000000" stroke="#000000" points="1458.7046,-170.5001 1448.7045,-174 1458.7045,-177.5001 1458.7046,-170.5001"/>
</g>
<!-- ColorComponent -->
<g id="node5" class="node">
<title>ColorComponent</title>
<polygon fill="#ffffb3" stroke="#000000" points="2464.7204,-122 2351.2796,-122 2351.2796,-86 2464.7204,-86 2464.7204,-122"/>
<text text-anchor="middle" x="2408" y="-99.8" font-family="Times,serif" font-size="14.00" fill="#000000">ColorComponent</text>
</g>
<!-- ColorComponent&#45;&gt;AppModule -->
<g id="edge5" class="edge">
<title>ColorComponent&#45;&gt;AppModule</title>
<path fill="none" stroke="#000000" d="M2408,-122.308C2408,-142.1455 2408,-171 2408,-171 2408,-171 1458.7373,-171 1458.7373,-171"/>
<polygon fill="#000000" stroke="#000000" points="1458.7373,-167.5001 1448.7373,-171 1458.7373,-174.5001 1458.7373,-167.5001"/>
</g>
<!-- DrivetrainComponent -->
<g id="node6" class="node">
<title>DrivetrainComponent</title>
<polygon fill="#ffffb3" stroke="#000000" points="2333.3613,-122 2194.6387,-122 2194.6387,-86 2333.3613,-86 2333.3613,-122"/>
<text text-anchor="middle" x="2264" y="-99.8" font-family="Times,serif" font-size="14.00" fill="#000000">DrivetrainComponent</text>
</g>
<!-- DrivetrainComponent&#45;&gt;AppModule -->
<g id="edge6" class="edge">
<title>DrivetrainComponent&#45;&gt;AppModule</title>
<path fill="none" stroke="#000000" d="M2264,-122.1686C2264,-141.0898 2264,-168 2264,-168 2264,-168 1458.915,-168 1458.915,-168"/>
<polygon fill="#000000" stroke="#000000" points="1458.9151,-164.5001 1448.915,-168 1458.915,-171.5001 1458.9151,-164.5001"/>
</g>
<!-- CustomizeComponent -->
<g id="node7" class="node">
<title>CustomizeComponent</title>
<polygon fill="#ffffb3" stroke="#000000" points="2176.7148,-122 2035.2852,-122 2035.2852,-86 2176.7148,-86 2176.7148,-122"/>
<text text-anchor="middle" x="2106" y="-99.8" font-family="Times,serif" font-size="14.00" fill="#000000">CustomizeComponent</text>
</g>
<!-- CustomizeComponent&#45;&gt;AppModule -->
<g id="edge7" class="edge">
<title>CustomizeComponent&#45;&gt;AppModule</title>
<path fill="none" stroke="#000000" d="M2106,-122.302C2106,-140.2699 2106,-165 2106,-165 2106,-165 1458.8915,-165 1458.8915,-165"/>
<polygon fill="#000000" stroke="#000000" points="1458.8916,-161.5001 1448.8915,-165 1458.8915,-168.5001 1458.8916,-161.5001"/>
</g>
<!-- AccessoriesComponent -->
<g id="node8" class="node">
<title>AccessoriesComponent</title>
<polygon fill="#ffffb3" stroke="#000000" points="2017.1825,-122 1868.8175,-122 1868.8175,-86 2017.1825,-86 2017.1825,-122"/>
<text text-anchor="middle" x="1943" y="-99.8" font-family="Times,serif" font-size="14.00" fill="#000000">AccessoriesComponent</text>
</g>
<!-- AccessoriesComponent&#45;&gt;AppModule -->
<g id="edge8" class="edge">
<title>AccessoriesComponent&#45;&gt;AppModule</title>
<path fill="none" stroke="#000000" d="M1943,-122.0352C1943,-138.7344 1943,-161 1943,-161 1943,-161 1459.059,-161 1459.059,-161"/>
<polygon fill="#000000" stroke="#000000" points="1459.0591,-157.5001 1449.059,-161 1459.059,-164.5001 1459.0591,-157.5001"/>
</g>
<!-- ExtrasComponent -->
<g id="node9" class="node">
<title>ExtrasComponent</title>
<polygon fill="#ffffb3" stroke="#000000" points="1850.5954,-122 1733.4046,-122 1733.4046,-86 1850.5954,-86 1850.5954,-122"/>
<text text-anchor="middle" x="1792" y="-99.8" font-family="Times,serif" font-size="14.00" fill="#000000">ExtrasComponent</text>
</g>
<!-- ExtrasComponent&#45;&gt;AppModule -->
<g id="edge9" class="edge">
<title>ExtrasComponent&#45;&gt;AppModule</title>
<path fill="none" stroke="#000000" d="M1792,-122.2819C1792,-137.9478 1792,-158 1792,-158 1792,-158 1458.9346,-158 1458.9346,-158"/>
<polygon fill="#000000" stroke="#000000" points="1458.9347,-154.5001 1448.9346,-158 1458.9346,-161.5001 1458.9347,-154.5001"/>
</g>
<!-- OverviewComponent -->
<g id="node10" class="node">
<title>OverviewComponent</title>
<polygon fill="#ffffb3" stroke="#000000" points="1715.0268,-122 1578.9732,-122 1578.9732,-86 1715.0268,-86 1715.0268,-122"/>
<text text-anchor="middle" x="1647" y="-99.8" font-family="Times,serif" font-size="14.00" fill="#000000">OverviewComponent</text>
</g>
<!-- OverviewComponent&#45;&gt;AppModule -->
<g id="edge10" class="edge">
<title>OverviewComponent&#45;&gt;AppModule</title>
<path fill="none" stroke="#000000" d="M1647,-122.1243C1647,-136.7832 1647,-155 1647,-155 1647,-155 1458.8048,-155 1458.8048,-155"/>
<polygon fill="#000000" stroke="#000000" points="1458.8048,-151.5001 1448.8048,-155 1458.8048,-158.5001 1458.8048,-151.5001"/>
</g>
<!-- OrderFormComponent -->
<g id="node11" class="node">
<title>OrderFormComponent</title>
<polygon fill="#ffffb3" stroke="#000000" points="1561.3089,-122 1416.6911,-122 1416.6911,-86 1561.3089,-86 1561.3089,-122"/>
<text text-anchor="middle" x="1489" y="-99.8" font-family="Times,serif" font-size="14.00" fill="#000000">OrderFormComponent</text>
</g>
<!-- OrderFormComponent&#45;&gt;AppModule -->
<g id="edge11" class="edge">
<title>OrderFormComponent&#45;&gt;AppModule</title>
<path fill="none" stroke="#000000" d="M1432.8369,-122.1061C1432.8369,-122.1061 1432.8369,-140.991 1432.8369,-140.991"/>
<polygon fill="#000000" stroke="#000000" points="1429.337,-140.9909 1432.8369,-150.991 1436.337,-140.991 1429.337,-140.9909"/>
</g>
<!-- BikeComponent -->
<g id="node12" class="node">
<title>BikeComponent</title>
<ellipse fill="#ffffb3" stroke="#000000" cx="1325" cy="-104" rx="74.1817" ry="18"/>
<text text-anchor="middle" x="1325" y="-99.8" font-family="Times,serif" font-size="14.00" fill="#000000">BikeComponent</text>
</g>
<!-- BikeComponent&#45;&gt;AppModule -->
<g id="edge12" class="edge">
<title>BikeComponent&#45;&gt;AppModule</title>
<path fill="none" stroke="#000000" d="M1376.5614,-117.1537C1376.5614,-117.1537 1376.5614,-140.6938 1376.5614,-140.6938"/>
<polygon fill="#000000" stroke="#000000" points="1373.0615,-140.6938 1376.5614,-150.6938 1380.0615,-140.6939 1373.0615,-140.6938"/>
</g>
<!-- BikeComponent&#45;&gt;AppModule -->
<g id="edge23" class="edge">
<title>BikeComponent&#45;&gt;AppModule</title>
<path fill="none" stroke="#000000" d="M1387.9511,-113.591C1387.9511,-113.591 1387.9511,-140.748 1387.9511,-140.748"/>
<polygon fill="#000000" stroke="#000000" points="1384.4512,-140.7479 1387.9511,-150.748 1391.4512,-140.748 1384.4512,-140.7479"/>
</g>
<!-- DoneComponent -->
<g id="node13" class="node">
<title>DoneComponent</title>
<polygon fill="#ffffb3" stroke="#000000" points="1232.6541,-122 1121.3459,-122 1121.3459,-86 1232.6541,-86 1232.6541,-122"/>
<text text-anchor="middle" x="1177" y="-99.8" font-family="Times,serif" font-size="14.00" fill="#000000">DoneComponent</text>
</g>
<!-- DoneComponent&#45;&gt;AppModule -->
<g id="edge13" class="edge">
<title>DoneComponent&#45;&gt;AppModule</title>
<path fill="none" stroke="#000000" d="M1177,-122.1243C1177,-136.7832 1177,-155 1177,-155 1177,-155 1355.0819,-155 1355.0819,-155"/>
<polygon fill="#000000" stroke="#000000" points="1355.0819,-158.5001 1365.0819,-155 1355.0819,-151.5001 1355.0819,-158.5001"/>
</g>
<!-- OrderConfirmationComponent -->
<g id="node14" class="node">
<title>OrderConfirmationComponent</title>
<polygon fill="#ffffb3" stroke="#000000" points="1102.91,-122 913.09,-122 913.09,-86 1102.91,-86 1102.91,-122"/>
<text text-anchor="middle" x="1008" y="-99.8" font-family="Times,serif" font-size="14.00" fill="#000000">OrderConfirmationComponent</text>
</g>
<!-- OrderConfirmationComponent&#45;&gt;AppModule -->
<g id="edge14" class="edge">
<title>OrderConfirmationComponent&#45;&gt;AppModule</title>
<path fill="none" stroke="#000000" d="M1008,-122.0091C1008,-138.0494 1008,-159 1008,-159 1008,-159 1355.0541,-159 1355.0541,-159"/>
<polygon fill="#000000" stroke="#000000" points="1355.0542,-162.5001 1365.0541,-159 1355.0541,-155.5001 1355.0542,-162.5001"/>
</g>
<!-- AppComponent  -->
<g id="node22" class="node">
<title>AppComponent </title>
<polygon fill="#80b1d3" stroke="#000000" points="1461.439,-252 1352.561,-252 1352.561,-216 1461.439,-216 1461.439,-252"/>
<text text-anchor="middle" x="1407" y="-229.8" font-family="Times,serif" font-size="14.00" fill="#000000">AppComponent </text>
</g>
<!-- AppModule&#45;&gt;AppComponent  -->
<g id="edge21" class="edge">
<title>AppModule&#45;&gt;AppComponent </title>
<path fill="none" stroke="#000000" stroke-dasharray="1,5" d="M1407,-187.1061C1407,-187.1061 1407,-205.991 1407,-205.991"/>
<polygon fill="#000000" stroke="#000000" points="1403.5001,-205.9909 1407,-215.991 1410.5001,-205.991 1403.5001,-205.9909"/>
</g>
<!-- BrowserModule -->
<g id="node16" class="node">
<title>BrowserModule</title>
<polygon fill="#8dd3c7" stroke="#000000" points="889.4734,-122 886.4734,-126 865.4734,-126 862.4734,-122 782.5266,-122 782.5266,-86 889.4734,-86 889.4734,-122"/>
<text text-anchor="middle" x="836" y="-99.8" font-family="Times,serif" font-size="14.00" fill="#000000">BrowserModule</text>
</g>
<!-- BrowserModule&#45;&gt;AppModule -->
<g id="edge15" class="edge">
<title>BrowserModule&#45;&gt;AppModule</title>
<path fill="none" stroke="#000000" d="M836,-122.0336C836,-139.0597 836,-162 836,-162 836,-162 1355.013,-162 1355.013,-162"/>
<polygon fill="#000000" stroke="#000000" points="1355.013,-165.5001 1365.013,-162 1355.013,-158.5001 1355.013,-165.5001"/>
</g>
<!-- FormsModule -->
<g id="node17" class="node">
<title>FormsModule</title>
<polygon fill="#8dd3c7" stroke="#000000" points="764.8288,-122 761.8288,-126 740.8288,-126 737.8288,-122 669.1712,-122 669.1712,-86 764.8288,-86 764.8288,-122"/>
<text text-anchor="middle" x="717" y="-99.8" font-family="Times,serif" font-size="14.00" fill="#000000">FormsModule</text>
</g>
<!-- FormsModule&#45;&gt;AppModule -->
<g id="edge16" class="edge">
<title>FormsModule&#45;&gt;AppModule</title>
<path fill="none" stroke="#000000" d="M717,-122.2667C717,-140.5552 717,-166 717,-166 717,-166 1355.134,-166 1355.134,-166"/>
<polygon fill="#000000" stroke="#000000" points="1355.1341,-169.5001 1365.134,-166 1355.134,-162.5001 1355.1341,-169.5001"/>
</g>
<!-- HttpModule -->
<g id="node18" class="node">
<title>HttpModule</title>
<polygon fill="#8dd3c7" stroke="#000000" points="651.4387,-122 648.4387,-126 627.4387,-126 624.4387,-122 566.5613,-122 566.5613,-86 651.4387,-86 651.4387,-122"/>
<text text-anchor="middle" x="609" y="-99.8" font-family="Times,serif" font-size="14.00" fill="#000000">HttpModule</text>
</g>
<!-- HttpModule&#45;&gt;AppModule -->
<g id="edge17" class="edge">
<title>HttpModule&#45;&gt;AppModule</title>
<path fill="none" stroke="#000000" d="M609,-122.1061C609,-141.3391 609,-169 609,-169 609,-169 1355.2196,-169 1355.2196,-169"/>
<polygon fill="#000000" stroke="#000000" points="1355.2196,-172.5001 1365.2196,-169 1355.2196,-165.5001 1355.2196,-172.5001"/>
</g>
<!-- routing -->
<g id="node19" class="node">
<title>routing</title>
<polygon fill="#8dd3c7" stroke="#000000" points="549.4435,-122 546.4435,-126 525.4435,-126 522.4435,-122 492.5565,-122 492.5565,-86 549.4435,-86 549.4435,-122"/>
<text text-anchor="middle" x="521" y="-99.8" font-family="Times,serif" font-size="14.00" fill="#000000">routing</text>
</g>
<!-- routing&#45;&gt;AppModule -->
<g id="edge18" class="edge">
<title>routing&#45;&gt;AppModule</title>
<path fill="none" stroke="#000000" d="M521,-122.1289C521,-142.5724 521,-173 521,-173 521,-173 1355.1591,-173 1355.1591,-173"/>
<polygon fill="#000000" stroke="#000000" points="1355.1591,-176.5001 1365.1591,-173 1355.159,-169.5001 1355.1591,-176.5001"/>
</g>
<!-- NgxCarouselModule -->
<g id="node20" class="node">
<title>NgxCarouselModule</title>
<polygon fill="#8dd3c7" stroke="#000000" points="474.9187,-122 471.9187,-126 450.9187,-126 447.9187,-122 341.0813,-122 341.0813,-86 474.9187,-86 474.9187,-122"/>
<text text-anchor="middle" x="408" y="-99.8" font-family="Times,serif" font-size="14.00" fill="#000000">NgxCarouselModule</text>
</g>
<!-- NgxCarouselModule&#45;&gt;AppModule -->
<g id="edge19" class="edge">
<title>NgxCarouselModule&#45;&gt;AppModule</title>
<path fill="none" stroke="#000000" d="M408,-122.0449C408,-143.6623 408,-177 408,-177 408,-177 1355.0297,-177 1355.0297,-177"/>
<polygon fill="#000000" stroke="#000000" points="1355.0298,-180.5001 1365.0297,-177 1355.0297,-173.5001 1355.0298,-180.5001"/>
</g>
<!-- DropdownModule -->
<g id="node21" class="node">
<title>DropdownModule</title>
<polygon fill="#8dd3c7" stroke="#000000" points="323.9244,-122 320.9244,-126 299.9244,-126 296.9244,-122 204.0756,-122 204.0756,-86 323.9244,-86 323.9244,-122"/>
<text text-anchor="middle" x="264" y="-99.8" font-family="Times,serif" font-size="14.00" fill="#000000">DropdownModule</text>
</g>
<!-- DropdownModule&#45;&gt;AppModule -->
<g id="edge20" class="edge">
<title>DropdownModule&#45;&gt;AppModule</title>
<path fill="none" stroke="#000000" d="M264,-122.0109C264,-144.4852 264,-180 264,-180 264,-180 1355.3052,-180 1355.3052,-180"/>
<polygon fill="#000000" stroke="#000000" points="1355.3053,-183.5001 1365.3052,-180 1355.3052,-176.5001 1355.3053,-183.5001"/>
</g>
<!-- CountriesService -->
<g id="node23" class="node">
<title>CountriesService</title>
<ellipse fill="#fdb462" stroke="#000000" cx="102" cy="-104" rx="77.5839" ry="18"/>
<text text-anchor="middle" x="102" y="-99.8" font-family="Times,serif" font-size="14.00" fill="#000000">CountriesService</text>
</g>
<!-- CountriesService&#45;&gt;AppModule -->
<g id="edge22" class="edge">
<title>CountriesService&#45;&gt;AppModule</title>
<path fill="none" stroke="#000000" d="M102,-122.1532C102,-145.7566 102,-184 102,-184 102,-184 1355.0583,-184 1355.0583,-184"/>
<polygon fill="#000000" stroke="#000000" points="1355.0584,-187.5001 1365.0583,-184 1355.0583,-180.5001 1355.0584,-187.5001"/>
</g>
</g>
</svg>
