<?xml version="1.0" encoding="UTF-8" standalone="no"?>
<!DOCTYPE svg PUBLIC "-//W3C//DTD SVG 1.1//EN"
 "http://www.w3.org/Graphics/SVG/1.1/DTD/svg11.dtd">
<!-- Generated by graphviz version 2.40.1 (20161225.0304)
 -->
<!-- Title: dependencies Pages: 1 -->
<svg width="3228pt" height="284pt"
 viewBox="0.00 0.00 3228.00 284.00" xmlns="http://www.w3.org/2000/svg" xmlns:xlink="http://www.w3.org/1999/xlink">
<g id="graph0" class="graph" transform="scale(1 1) rotate(0) translate(4 280)">
<title>dependencies</title>
<polygon fill="#ffffff" stroke="transparent" points="-4,4 -4,-280 3224,-280 3224,4 -4,4"/>
<text text-anchor="start" x="1589.0091" y="-42.4" font-family="sans-serif" font-weight="bold" font-size="14.00" fill="#000000">Legend</text>
<polygon fill="#ffffb3" stroke="transparent" points="1376,-10 1376,-30 1396,-30 1396,-10 1376,-10"/>
<text text-anchor="start" x="1399.629" y="-15.4" font-family="sans-serif" font-size="14.00" fill="#000000"> &#160;Declarations</text>
<polygon fill="#8dd3c7" stroke="transparent" points="1489,-10 1489,-30 1509,-30 1509,-10 1489,-10"/>
<text text-anchor="start" x="1512.7251" y="-15.4" font-family="sans-serif" font-size="14.00" fill="#000000"> &#160;Module</text>
<polygon fill="#80b1d3" stroke="transparent" points="1575,-10 1575,-30 1595,-30 1595,-10 1575,-10"/>
<text text-anchor="start" x="1598.7812" y="-15.4" font-family="sans-serif" font-size="14.00" fill="#000000"> &#160;Bootstrap</text>
<polygon fill="#fdb462" stroke="transparent" points="1672,-10 1672,-30 1692,-30 1692,-10 1672,-10"/>
<text text-anchor="start" x="1695.6732" y="-15.4" font-family="sans-serif" font-size="14.00" fill="#000000"> &#160;Providers</text>
<polygon fill="#fb8072" stroke="transparent" points="1768,-10 1768,-30 1788,-30 1788,-10 1768,-10"/>
<text text-anchor="start" x="1791.7258" y="-15.4" font-family="sans-serif" font-size="14.00" fill="#000000"> &#160;Exports</text>
<g id="clust1" class="cluster">
<title>cluster_AppModule</title>
<polygon fill="none" stroke="#000000" stroke-dasharray="1,5" points="8,-70 8,-268 3212,-268 3212,-70 8,-70"/>
</g>
<g id="clust2" class="cluster">
<title>cluster_AppModule_declarations</title>
<polygon fill="none" stroke="#000000" points="1068,-78 1068,-130 3204,-130 3204,-78 1068,-78"/>
</g>
<g id="clust17" class="cluster">
<title>cluster_AppModule_imports</title>
<polygon fill="none" stroke="#000000" points="196,-78 196,-130 1060,-130 1060,-78 196,-78"/>
</g>
<g id="clust19" class="cluster">
<title>cluster_AppModule_bootstrap</title>
<polygon fill="none" stroke="#000000" points="1426,-208 1426,-260 1550,-260 1550,-208 1426,-208"/>
</g>
<g id="clust20" class="cluster">
<title>cluster_AppModule_providers</title>
<polygon fill="none" stroke="#000000" points="16,-78 16,-130 188,-130 188,-78 16,-78"/>
</g>
<!-- AppComponent -->
<g id="node1" class="node">
<title>AppComponent</title>
<polygon fill="#ffffb3" stroke="#000000" points="3195.9399,-122 3090.0601,-122 3090.0601,-86 3195.9399,-86 3195.9399,-122"/>
<text text-anchor="middle" x="3143" y="-99.8" font-family="Times,serif" font-size="14.00" fill="#000000">AppComponent</text>
</g>
<!-- AppModule -->
<g id="node15" class="node">
<title>AppModule</title>
<polygon fill="#8dd3c7" stroke="#000000" points="1529.6571,-187 1526.6571,-191 1505.6571,-191 1502.6571,-187 1446.3429,-187 1446.3429,-151 1529.6571,-151 1529.6571,-187"/>
<text text-anchor="middle" x="1488" y="-164.8" font-family="Times,serif" font-size="14.00" fill="#000000">AppModule</text>
</g>
<!-- AppComponent&#45;&gt;AppModule -->
<g id="edge1" class="edge">
<title>AppComponent&#45;&gt;AppModule</title>
<path fill="none" stroke="#000000" d="M3143,-122.1532C3143,-145.7566 3143,-184 3143,-184 3143,-184 1539.7381,-184 1539.7381,-184"/>
<polygon fill="#000000" stroke="#000000" points="1539.7381,-180.5001 1529.7381,-184 1539.738,-187.5001 1539.7381,-180.5001"/>
</g>
<!-- WelcomeComponent -->
<g id="node2" class="node">
<title>WelcomeComponent</title>
<polygon fill="#ffffb3" stroke="#000000" points="3072.472,-122 2937.528,-122 2937.528,-86 3072.472,-86 3072.472,-122"/>
<text text-anchor="middle" x="3005" y="-99.8" font-family="Times,serif" font-size="14.00" fill="#000000">WelcomeComponent</text>
</g>
<!-- WelcomeComponent&#45;&gt;AppModule -->
<g id="edge2" class="edge">
<title>WelcomeComponent&#45;&gt;AppModule</title>
<path fill="none" stroke="#000000" d="M3005,-122.2479C3005,-145.0179 3005,-181 3005,-181 3005,-181 1539.7588,-181 1539.7588,-181"/>
<polygon fill="#000000" stroke="#000000" points="1539.7589,-177.5001 1529.7588,-181 1539.7588,-184.5001 1539.7589,-177.5001"/>
</g>
<!-- NotFoundComponent -->
<g id="node3" class="node">
<title>NotFoundComponent</title>
<polygon fill="#ffffb3" stroke="#000000" points="2919.1122,-122 2780.8878,-122 2780.8878,-86 2919.1122,-86 2919.1122,-122"/>
<text text-anchor="middle" x="2850" y="-99.8" font-family="Times,serif" font-size="14.00" fill="#000000">NotFoundComponent</text>
</g>
<!-- NotFoundComponent&#45;&gt;AppModule -->
<g id="edge3" class="edge">
<title>NotFoundComponent&#45;&gt;AppModule</title>
<path fill="none" stroke="#000000" d="M2850,-122.2921C2850,-144.2057 2850,-178 2850,-178 2850,-178 1539.8798,-178 1539.8798,-178"/>
<polygon fill="#000000" stroke="#000000" points="1539.8798,-174.5001 1529.8798,-178 1539.8797,-181.5001 1539.8798,-174.5001"/>
</g>
<!-- FrameComponent -->
<g id="node4" class="node">
<title>FrameComponent</title>
<polygon fill="#ffffb3" stroke="#000000" points="2762.5954,-122 2645.4046,-122 2645.4046,-86 2762.5954,-86 2762.5954,-122"/>
<text text-anchor="middle" x="2704" y="-99.8" font-family="Times,serif" font-size="14.00" fill="#000000">FrameComponent</text>
</g>
<!-- FrameComponent&#45;&gt;AppModule -->
<g id="edge4" class="edge">
<title>FrameComponent&#45;&gt;AppModule</title>
<path fill="none" stroke="#000000" d="M2704,-122.2843C2704,-143.3211 2704,-175 2704,-175 2704,-175 1539.8575,-175 1539.8575,-175"/>
<polygon fill="#000000" stroke="#000000" points="1539.8575,-171.5001 1529.8575,-175 1539.8574,-178.5001 1539.8575,-171.5001"/>
</g>
<!-- ColorComponent -->
<g id="node5" class="node">
<title>ColorComponent</title>
<polygon fill="#ffffb3" stroke="#000000" points="2627.7204,-122 2514.2796,-122 2514.2796,-86 2627.7204,-86 2627.7204,-122"/>
<text text-anchor="middle" x="2571" y="-99.8" font-family="Times,serif" font-size="14.00" fill="#000000">ColorComponent</text>
</g>
<!-- ColorComponent&#45;&gt;AppModule -->
<g id="edge5" class="edge">
<title>ColorComponent&#45;&gt;AppModule</title>
<path fill="none" stroke="#000000" d="M2571,-122.2228C2571,-142.3652 2571,-172 2571,-172 2571,-172 1539.7913,-172 1539.7913,-172"/>
<polygon fill="#000000" stroke="#000000" points="1539.7913,-168.5001 1529.7913,-172 1539.7913,-175.5001 1539.7913,-168.5001"/>
</g>
<!-- DrivetrainComponent -->
<g id="node6" class="node">
<title>DrivetrainComponent</title>
<polygon fill="#ffffb3" stroke="#000000" points="2496.3613,-122 2357.6387,-122 2357.6387,-86 2496.3613,-86 2496.3613,-122"/>
<text text-anchor="middle" x="2427" y="-99.8" font-family="Times,serif" font-size="14.00" fill="#000000">DrivetrainComponent</text>
</g>
<!-- DrivetrainComponent&#45;&gt;AppModule -->
<g id="edge6" class="edge">
<title>DrivetrainComponent&#45;&gt;AppModule</title>
<path fill="none" stroke="#000000" d="M2427,-122.1061C2427,-141.3391 2427,-169 2427,-169 2427,-169 1539.8647,-169 1539.8647,-169"/>
<polygon fill="#000000" stroke="#000000" points="1539.8647,-165.5001 1529.8647,-169 1539.8646,-172.5001 1539.8647,-165.5001"/>
</g>
<!-- CustomizeComponent -->
<g id="node7" class="node">
<title>CustomizeComponent</title>
<polygon fill="#ffffb3" stroke="#000000" points="2339.7148,-122 2198.2852,-122 2198.2852,-86 2339.7148,-86 2339.7148,-122"/>
<text text-anchor="middle" x="2269" y="-99.8" font-family="Times,serif" font-size="14.00" fill="#000000">CustomizeComponent</text>
</g>
<!-- CustomizeComponent&#45;&gt;AppModule -->
<g id="edge7" class="edge">
<title>CustomizeComponent&#45;&gt;AppModule</title>
<path fill="none" stroke="#000000" d="M2269,-122.2667C2269,-140.5552 2269,-166 2269,-166 2269,-166 1539.7138,-166 1539.7138,-166"/>
<polygon fill="#000000" stroke="#000000" points="1539.7139,-162.5001 1529.7138,-166 1539.7138,-169.5001 1539.7139,-162.5001"/>
</g>
<!-- AccessoriesComponent -->
<g id="node8" class="node">
<title>AccessoriesComponent</title>
<polygon fill="#ffffb3" stroke="#000000" points="2180.1825,-122 2031.8175,-122 2031.8175,-86 2180.1825,-86 2180.1825,-122"/>
<text text-anchor="middle" x="2106" y="-99.8" font-family="Times,serif" font-size="14.00" fill="#000000">AccessoriesComponent</text>
</g>
<!-- AccessoriesComponent&#45;&gt;AppModule -->
<g id="edge8" class="edge">
<title>AccessoriesComponent&#45;&gt;AppModule</title>
<path fill="none" stroke="#000000" d="M2106,-122.0225C2106,-139.3734 2106,-163 2106,-163 2106,-163 1539.9918,-163 1539.9918,-163"/>
<polygon fill="#000000" stroke="#000000" points="1539.9918,-159.5001 1529.9918,-163 1539.9918,-166.5001 1539.9918,-159.5001"/>
</g>
<!-- ExtrasComponent -->
<g id="node9" class="node">
<title>ExtrasComponent</title>
<polygon fill="#ffffb3" stroke="#000000" points="2013.5954,-122 1896.4046,-122 1896.4046,-86 2013.5954,-86 2013.5954,-122"/>
<text text-anchor="middle" x="1955" y="-99.8" font-family="Times,serif" font-size="14.00" fill="#000000">ExtrasComponent</text>
</g>
<!-- ExtrasComponent&#45;&gt;AppModule -->
<g id="edge9" class="edge">
<title>ExtrasComponent&#45;&gt;AppModule</title>
<path fill="none" stroke="#000000" d="M1955,-122.027C1955,-138.3976 1955,-160 1955,-160 1955,-160 1539.8541,-160 1539.8541,-160"/>
<polygon fill="#000000" stroke="#000000" points="1539.8542,-156.5001 1529.8541,-160 1539.8541,-163.5001 1539.8542,-156.5001"/>
</g>
<!-- OverviewComponent -->
<g id="node10" class="node">
<title>OverviewComponent</title>
<polygon fill="#ffffb3" stroke="#000000" points="1878.0268,-122 1741.9732,-122 1741.9732,-86 1878.0268,-86 1878.0268,-122"/>
<text text-anchor="middle" x="1810" y="-99.8" font-family="Times,serif" font-size="14.00" fill="#000000">OverviewComponent</text>
</g>
<!-- OverviewComponent&#45;&gt;AppModule -->
<g id="edge10" class="edge">
<title>OverviewComponent&#45;&gt;AppModule</title>
<path fill="none" stroke="#000000" d="M1810,-122.2396C1810,-137.5706 1810,-157 1810,-157 1810,-157 1539.7658,-157 1539.7658,-157"/>
<polygon fill="#000000" stroke="#000000" points="1539.7658,-153.5001 1529.7658,-157 1539.7657,-160.5001 1539.7658,-153.5001"/>
</g>
<!-- OrderFormComponent -->
<g id="node11" class="node">
<title>OrderFormComponent</title>
<polygon fill="#ffffb3" stroke="#000000" points="1724.3089,-122 1579.6911,-122 1579.6911,-86 1724.3089,-86 1724.3089,-122"/>
<text text-anchor="middle" x="1652" y="-99.8" font-family="Times,serif" font-size="14.00" fill="#000000">OrderFormComponent</text>
</g>
<!-- OrderFormComponent&#45;&gt;AppModule -->
<g id="edge11" class="edge">
<title>OrderFormComponent&#45;&gt;AppModule</title>
<path fill="none" stroke="#000000" d="M1652,-122.0511C1652,-136.373 1652,-154 1652,-154 1652,-154 1539.8085,-154 1539.8085,-154"/>
<polygon fill="#000000" stroke="#000000" points="1539.8085,-150.5001 1529.8085,-154 1539.8084,-157.5001 1539.8085,-150.5001"/>
</g>
<!-- BikeComponent -->
<g id="node12" class="node">
<title>BikeComponent</title>
<ellipse fill="#ffffb3" stroke="#000000" cx="1488" cy="-104" rx="74.1817" ry="18"/>
<text text-anchor="middle" x="1488" y="-99.8" font-family="Times,serif" font-size="14.00" fill="#000000">BikeComponent</text>
</g>
<!-- BikeComponent&#45;&gt;AppModule -->
<g id="edge12" class="edge">
<title>BikeComponent&#45;&gt;AppModule</title>
<path fill="none" stroke="#000000" d="M1474.0573,-121.7615C1474.0573,-121.7615 1474.0573,-140.8074 1474.0573,-140.8074"/>
<polygon fill="#000000" stroke="#000000" points="1470.5574,-140.8074 1474.0573,-150.8074 1477.5574,-140.8075 1470.5574,-140.8074"/>
</g>
<!-- BikeComponent&#45;&gt;AppModule -->
<g id="edge24" class="edge">
<title>BikeComponent&#45;&gt;AppModule</title>
<path fill="none" stroke="#000000" d="M1501.9427,-121.7615C1501.9427,-121.7615 1501.9427,-140.8074 1501.9427,-140.8074"/>
<polygon fill="#000000" stroke="#000000" points="1498.4428,-140.8074 1501.9427,-150.8074 1505.4428,-140.8075 1498.4428,-140.8074"/>
</g>
<!-- DoneComponent -->
<g id="node13" class="node">
<title>DoneComponent</title>
<polygon fill="#ffffb3" stroke="#000000" points="1395.6541,-122 1284.3459,-122 1284.3459,-86 1395.6541,-86 1395.6541,-122"/>
<text text-anchor="middle" x="1340" y="-99.8" font-family="Times,serif" font-size="14.00" fill="#000000">DoneComponent</text>
</g>
<!-- DoneComponent&#45;&gt;AppModule -->
<g id="edge13" class="edge">
<title>DoneComponent&#45;&gt;AppModule</title>
<path fill="none" stroke="#000000" d="M1340,-122.1243C1340,-136.7832 1340,-155 1340,-155 1340,-155 1435.985,-155 1435.985,-155"/>
<polygon fill="#000000" stroke="#000000" points="1435.9851,-158.5001 1445.985,-155 1435.985,-151.5001 1435.9851,-158.5001"/>
</g>
<!-- OrderConfirmationComponent -->
<g id="node14" class="node">
<title>OrderConfirmationComponent</title>
<polygon fill="#ffffb3" stroke="#000000" points="1265.91,-122 1076.09,-122 1076.09,-86 1265.91,-86 1265.91,-122"/>
<text text-anchor="middle" x="1171" y="-99.8" font-family="Times,serif" font-size="14.00" fill="#000000">OrderConfirmationComponent</text>
</g>
<!-- OrderConfirmationComponent&#45;&gt;AppModule -->
<g id="edge14" class="edge">
<title>OrderConfirmationComponent&#45;&gt;AppModule</title>
<path fill="none" stroke="#000000" d="M1171,-122.2819C1171,-137.9478 1171,-158 1171,-158 1171,-158 1436.2318,-158 1436.2318,-158"/>
<polygon fill="#000000" stroke="#000000" points="1436.2318,-161.5001 1446.2318,-158 1436.2318,-154.5001 1436.2318,-161.5001"/>
</g>
<!-- AppComponent  -->
<g id="node23" class="node">
<title>AppComponent </title>
<polygon fill="#80b1d3" stroke="#000000" points="1542.439,-252 1433.561,-252 1433.561,-216 1542.439,-216 1542.439,-252"/>
<text text-anchor="middle" x="1488" y="-229.8" font-family="Times,serif" font-size="14.00" fill="#000000">AppComponent </text>
</g>
<!-- AppModule&#45;&gt;AppComponent  -->
<g id="edge22" class="edge">
<title>AppModule&#45;&gt;AppComponent </title>
<path fill="none" stroke="#000000" stroke-dasharray="1,5" d="M1488,-187.1061C1488,-187.1061 1488,-205.991 1488,-205.991"/>
<polygon fill="#000000" stroke="#000000" points="1484.5001,-205.9909 1488,-215.991 1491.5001,-205.991 1484.5001,-205.9909"/>
</g>
<!-- BrowserModule -->
<g id="node16" class="node">
<title>BrowserModule</title>
<polygon fill="#8dd3c7" stroke="#000000" points="1052.4734,-122 1049.4734,-126 1028.4734,-126 1025.4734,-122 945.5266,-122 945.5266,-86 1052.4734,-86 1052.4734,-122"/>
<text text-anchor="middle" x="999" y="-99.8" font-family="Times,serif" font-size="14.00" fill="#000000">BrowserModule</text>
</g>
<!-- BrowserModule&#45;&gt;AppModule -->
<g id="edge15" class="edge">
<title>BrowserModule&#45;&gt;AppModule</title>
<path fill="none" stroke="#000000" d="M999,-122.0352C999,-138.7344 999,-161 999,-161 999,-161 1436.3081,-161 1436.3081,-161"/>
<polygon fill="#000000" stroke="#000000" points="1436.3082,-164.5001 1446.3081,-161 1436.3081,-157.5001 1436.3082,-164.5001"/>
</g>
<!-- FormsModule -->
<g id="node17" class="node">
<title>FormsModule</title>
<polygon fill="#8dd3c7" stroke="#000000" points="927.8288,-122 924.8288,-126 903.8288,-126 900.8288,-122 832.1712,-122 832.1712,-86 927.8288,-86 927.8288,-122"/>
<text text-anchor="middle" x="880" y="-99.8" font-family="Times,serif" font-size="14.00" fill="#000000">FormsModule</text>
</g>
<!-- FormsModule&#45;&gt;AppModule -->
<g id="edge16" class="edge">
<title>FormsModule&#45;&gt;AppModule</title>
<path fill="none" stroke="#000000" d="M880,-122.302C880,-140.2699 880,-165 880,-165 880,-165 1436.2097,-165 1436.2097,-165"/>
<polygon fill="#000000" stroke="#000000" points="1436.2097,-168.5001 1446.2097,-165 1436.2097,-161.5001 1436.2097,-168.5001"/>
</g>
<!-- HttpModule -->
<g id="node18" class="node">
<title>HttpModule</title>
<polygon fill="#8dd3c7" stroke="#000000" points="814.4387,-122 811.4387,-126 790.4387,-126 787.4387,-122 729.5613,-122 729.5613,-86 814.4387,-86 814.4387,-122"/>
<text text-anchor="middle" x="772" y="-99.8" font-family="Times,serif" font-size="14.00" fill="#000000">HttpModule</text>
</g>
<!-- HttpModule&#45;&gt;AppModule -->
<g id="edge17" class="edge">
<title>HttpModule&#45;&gt;AppModule</title>
<path fill="none" stroke="#000000" d="M772,-122.1686C772,-141.0898 772,-168 772,-168 772,-168 1436.1474,-168 1436.1474,-168"/>
<polygon fill="#000000" stroke="#000000" points="1436.1474,-171.5001 1446.1474,-168 1436.1473,-164.5001 1436.1474,-171.5001"/>
</g>
<!-- routing -->
<g id="node19" class="node">
<title>routing</title>
<polygon fill="#8dd3c7" stroke="#000000" points="712.4435,-122 709.4435,-126 688.4435,-126 685.4435,-122 655.5565,-122 655.5565,-86 712.4435,-86 712.4435,-122"/>
<text text-anchor="middle" x="684" y="-99.8" font-family="Times,serif" font-size="14.00" fill="#000000">routing</text>
</g>
<!-- routing&#45;&gt;AppModule -->
<g id="edge18" class="edge">
<title>routing&#45;&gt;AppModule</title>
<path fill="none" stroke="#000000" d="M684,-122.308C684,-142.1455 684,-171 684,-171 684,-171 1436.1864,-171 1436.1864,-171"/>
<polygon fill="#000000" stroke="#000000" points="1436.1864,-174.5001 1446.1864,-171 1436.1864,-167.5001 1436.1864,-174.5001"/>
</g>
<!-- NgxCarouselModule -->
<g id="node20" class="node">
<title>NgxCarouselModule</title>
<polygon fill="#8dd3c7" stroke="#000000" points="637.9187,-122 634.9187,-126 613.9187,-126 610.9187,-122 504.0813,-122 504.0813,-86 637.9187,-86 637.9187,-122"/>
<text text-anchor="middle" x="571" y="-99.8" font-family="Times,serif" font-size="14.00" fill="#000000">NgxCarouselModule</text>
</g>
<!-- NgxCarouselModule&#45;&gt;AppModule -->
<g id="edge19" class="edge">
<title>NgxCarouselModule&#45;&gt;AppModule</title>
<path fill="none" stroke="#000000" d="M571,-122.0267C571,-142.7672 571,-174 571,-174 571,-174 1436.2156,-174 1436.2156,-174"/>
<polygon fill="#000000" stroke="#000000" points="1436.2156,-177.5001 1446.2156,-174 1436.2155,-170.5001 1436.2156,-177.5001"/>
</g>
<!-- ReactiveFormsModule -->
<g id="node21" class="node">
<title>ReactiveFormsModule</title>
<polygon fill="#8dd3c7" stroke="#000000" points="486.3047,-122 483.3047,-126 462.3047,-126 459.3047,-122 341.6953,-122 341.6953,-86 486.3047,-86 486.3047,-122"/>
<text text-anchor="middle" x="414" y="-99.8" font-family="Times,serif" font-size="14.00" fill="#000000">ReactiveFormsModule</text>
</g>
<!-- ReactiveFormsModule&#45;&gt;AppModule -->
<g id="edge20" class="edge">
<title>ReactiveFormsModule&#45;&gt;AppModule</title>
<path fill="none" stroke="#000000" d="M414,-122.2921C414,-144.2057 414,-178 414,-178 414,-178 1436.2276,-178 1436.2276,-178"/>
<polygon fill="#000000" stroke="#000000" points="1436.2276,-181.5001 1446.2276,-178 1436.2275,-174.5001 1436.2276,-181.5001"/>
</g>
<!-- DropdownModule -->
<g id="node22" class="node">
<title>DropdownModule</title>
<polygon fill="#8dd3c7" stroke="#000000" points="323.9244,-122 320.9244,-126 299.9244,-126 296.9244,-122 204.0756,-122 204.0756,-86 323.9244,-86 323.9244,-122"/>
<text text-anchor="middle" x="264" y="-99.8" font-family="Times,serif" font-size="14.00" fill="#000000">DropdownModule</text>
</g>
<!-- DropdownModule&#45;&gt;AppModule -->
<g id="edge21" class="edge">
<title>DropdownModule&#45;&gt;AppModule</title>
<path fill="none" stroke="#000000" d="M264,-122.2479C264,-145.0179 264,-181 264,-181 264,-181 1436.2212,-181 1436.2212,-181"/>
<polygon fill="#000000" stroke="#000000" points="1436.2213,-184.5001 1446.2212,-181 1436.2212,-177.5001 1436.2213,-184.5001"/>
</g>
<!-- CountriesService -->
<g id="node24" class="node">
<title>CountriesService</title>
<ellipse fill="#fdb462" stroke="#000000" cx="102" cy="-104" rx="77.5839" ry="18"/>
<text text-anchor="middle" x="102" y="-99.8" font-family="Times,serif" font-size="14.00" fill="#000000">CountriesService</text>
</g>
<!-- CountriesService&#45;&gt;AppModule -->
<g id="edge23" class="edge">
<title>CountriesService&#45;&gt;AppModule</title>
<path fill="none" stroke="#000000" d="M102,-122.1532C102,-145.7566 102,-184 102,-184 102,-184 1436.1422,-184 1436.1422,-184"/>
<polygon fill="#000000" stroke="#000000" points="1436.1422,-187.5001 1446.1422,-184 1436.1421,-180.5001 1436.1422,-187.5001"/>
</g>
</g>
</svg>
